<svg width="32" height="32" viewBox="0 0 32 32" fill="none" xmlns="http://www.w3.org/2000/svg">
  <!-- Gradient background matching navbar -->
  <defs>
    <linearGradient id="brainGradient" x1="0%" y1="0%" x2="100%" y2="100%">
      <stop offset="0%" style="stop-color:#3B82F6;stop-opacity:0.7" />
      <stop offset="50%" style="stop-color:#8B5CF6;stop-opacity:0.6" />
      <stop offset="100%" style="stop-color:#EC4899;stop-opacity:0.5" />
    </linearGradient>
    <filter id="glow">
      <feGaussianBlur stdDeviation="2" result="coloredBlur"/>
      <feMerge> 
        <feMergeNode in="coloredBlur"/>
        <feMergeNode in="SourceGraphic"/>
      </feMerge>
    </filter>
  </defs>
  
  <!-- Rounded rectangle background -->
  <rect x="2" y="2" width="28" height="28" rx="8" fill="url(#brainGradient)" stroke="rgba(255,255,255,0.2)" stroke-width="0.5"/>
  
  <!-- Brain icon (simplified Lucide Brain path) -->
  <g transform="translate(8, 8)" filter="url(#glow)">
    <path d="M9.5 2A2.5 2.5 0 0 1 12 4.5v1.086a4.001 4.001 0 0 1 1.964 6.864L14.5 13a2.5 2.5 0 0 1-2.5 2.5h-.043a2.5 2.5 0 0 1-2.5-2.5L9 12.5a2.5 2.5 0 0 1-2.5-2.5 2.5 2.5 0 0 1 0-5 2.5 2.5 0 0 1 2.5-2.5Z" fill="white" stroke="none"/>
    <path d="M9.5 2A2.5 2.5 0 0 1 12 4.5v1.086" stroke="rgba(59,130,246,0.8)" stroke-width="0.5" fill="none"/>
  </g>
</svg>